<svg xmlns="http://www.w3.org/2000/svg"  viewBox="0 0 512 512" width="64px" height="64px"><path fill="#5fcda4" d="M314.13,408H197.86c-79.1,5-136.5,20.28-136.5,38.1,0,21.95,87.14,39.82,194.64,39.82s194.64-17.91,194.64-39.86C450.64,428.24,393.23,413,314.13,408Z"/><path fill="#48a07c" d="M91.36,446.1c0-17.82,57.4-33.1,136.5-38.1h-30c-79.1,5-136.5,20.28-136.5,38.1,0,21.95,87.14,39.82,194.64,39.82q7.567,0,14.993-.117C170.506,484.232,91.36,467.019,91.36,446.1Z"/><path fill="#e87187" d="M314.13,408.32C281.87,436.17,256,452.71,256,452.71s-25.87-16.54-58.14-44.39C144.41,362.18,73.43,285,73.43,200.54,73.43,104.17,155.34,26,256,26s182.57,78.17,182.57,174.54C438.57,285.01,367.58,362.19,314.13,408.32Z"/><path fill="#b0b5ca" d="M256,86.5A114.135,114.135,0,1,1,141.87,200.63,114.133,114.133,0,0,1,256,86.5Z"/><path fill="#6d7486" d="M290.95,108.66l-.25.66-40.46,65.63a26.317,26.317,0,0,0-20.56,25.68l-25.83-83.07-.16-.25a98.51,98.51,0,0,1,87.26-8.65Z"/><path fill="#6d7486" d="M282.32,200.63l55.83,54.02.04.03a98.267,98.267,0,0,1-69.55,43.51l-.05-.37,6.23-78.69-.05-.05A26.208,26.208,0,0,0,282.32,200.63Z"/><path fill="#7e8699" d="M349.39,169.67a98.494,98.494,0,0,1-11.2,85.01l-.04-.03-55.83-54.02a26.307,26.307,0,0,0-12.54-22.43l.02-.03Z"/><path fill="#5c6270" d="M256,226.95a26.236,26.236,0,0,0,18.77-7.87l.05.05-6.23,78.69.05.37a98.468,98.468,0,0,1-82.01-27.81l.19-.2Z"/><path fill="#5c6270" d="M349.39,169.67l-79.59,8.5-.02.03A26.278,26.278,0,0,0,256,174.31a26.007,26.007,0,0,0-5.76.64l40.46-65.63.25-.66A98.569,98.569,0,0,1,349.39,169.67Z"/><path fill="#7e8699" d="M232.93,213.33l-.09.05-75.16-15.71a98.264,98.264,0,0,1,46.01-80.36l.16.25,25.83,83.07A26.286,26.286,0,0,0,232.93,213.33Z"/><path fill="#6d7486" d="M186.63,270.38a98.09,98.09,0,0,1-29-69.75c0-.99.01-1.98.05-2.96l75.16,15.71.09-.05A26.342,26.342,0,0,0,256,226.95l-69.18,43.23Z"/><path fill="#72bcef" d="M250.2,174.774A26.5,26.5,0,1,1,256,227.13a26.5,26.5,0,0,1-5.8-52.356Z"/><path fill="#ba5b70" d="M227.86,408.32C174.41,362.18,103.43,285,103.43,200.54c0-91.535,73.9-166.64,167.57-173.948-4.948-.386-9.949-.592-15-.592C155.34,26,73.43,104.17,73.43,200.54c0,84.46,70.98,161.64,124.43,207.78C230.13,436.17,256,452.71,256,452.71s5.666-3.623,15-10.33C260.386,434.753,245.029,423.138,227.86,408.32Z"/><path fill="#f4f8fc" d="M93.758,206.633a6,6,0,0,1-5.982-5.606c-.229-3.5-.346-7.025-.346-10.487a6,6,0,0,1,12,0c0,3.2.108,6.464.321,9.7a6,6,0,0,1-5.593,6.381C94.023,206.629,93.89,206.633,93.758,206.633Z" data-name="Path"/><path fill="#f4f8fc" d="M143.656,326.055a5.989,5.989,0,0,1-4.817-2.417c-23.891-32.093-39.65-63.93-46.837-94.627a6,6,0,1,1,11.684-2.736c6.81,29.086,21.876,59.433,44.778,90.2a6,6,0,0,1-4.808,9.583Z" data-name="Path"/></svg>